<?xml version="1.0" encoding="utf-8"?>
<!-- Generator: Adobe Illustrator 18.0.0, SVG Export Plug-In . SVG Version: 6.00 Build 0)  -->
<!DOCTYPE svg PUBLIC "-//W3C//DTD SVG 1.1//EN" "http://www.w3.org/Graphics/SVG/1.1/DTD/svg11.dtd">
<svg version="1.1" id="Layer_1" xmlns="http://www.w3.org/2000/svg" xmlns:xlink="http://www.w3.org/1999/xlink" x="0px" y="0px"
	 viewBox="0 0 38 41" enable-background="new 0 0 38 41" xml:space="preserve">
<g enable-background="new    ">
	<g>
		<defs>
			<rect id="SVGID_1_" width="38" height="41"/>
		</defs>
		<clipPath id="SVGID_2_">
			<use xlink:href="#SVGID_1_"  overflow="visible"/>
		</clipPath>
		<g clip-path="url(#SVGID_2_)">
			<defs>
				<rect id="SVGID_3_" x="-41" y="-255" width="640" height="1477"/>
			</defs>
			<clipPath id="SVGID_4_">
				<use xlink:href="#SVGID_3_"  overflow="visible"/>
			</clipPath>
			<g clip-path="url(#SVGID_4_)">
				<defs>
					<path id="SVGID_5_" d="M16.9,28.2h3.9V40c0,0.1,0,0.1-0.1,0.1H17c-0.1,0-0.1-0.1-0.1-0.1V28.2z M6.2,17.5h24.8v9.8H6.1l-5-4.9
						L6.2,17.5z M16.9,11.6h3.9v4.9h-3.9V11.6z M7.1,0.9h24.8l5,4.9l-5,4.9H7.1V0.9z M6.5,0C6.3,0,6.1,0.2,6.1,0.5v10.7
						c0,0.2,0.2,0.5,0.5,0.5H16v4.9H6h0c-0.1,0-0.2,0-0.3,0.1l-5.5,5.4c-0.2,0.2-0.2,0.5,0,0.6l5.5,5.4c0.1,0.1,0.2,0.1,0.3,0.1h10
						V40c0,0.6,0.5,1,1.1,1h3.6c0.6,0,1-0.5,1-1V28.2h9.7c0.2,0,0.5-0.2,0.5-0.5V17c0-0.2-0.2-0.5-0.5-0.5h-9.7v-4.9H32
						c0.1,0,0.2,0,0.3-0.1l5.5-5.4C38,6,38,5.7,37.9,5.5l-5.5-5.4C32.3,0,32.2,0,32,0H6.5L6.5,0C6.5,0,6.5,0,6.5,0z"/>
				</defs>
				<clipPath id="SVGID_6_">
					<use xlink:href="#SVGID_5_"  overflow="visible"/>
				</clipPath>
				<g clip-path="url(#SVGID_6_)">
					<defs>
						<rect id="SVGID_7_" width="38" height="41"/>
					</defs>
					<clipPath id="SVGID_8_">
						<use xlink:href="#SVGID_7_"  overflow="visible"/>
					</clipPath>
					<rect x="-5" y="-5" clip-path="url(#SVGID_8_)" fill="#249DF7" width="48" height="51"/>
				</g>
			</g>
		</g>
	</g>
</g>
</svg>
