<?xml version="1.0" encoding="utf-8"?>
<!-- Generator: Adobe Illustrator 18.0.0, SVG Export Plug-In . SVG Version: 6.00 Build 0)  -->
<!DOCTYPE svg PUBLIC "-//W3C//DTD SVG 1.1//EN" "http://www.w3.org/Graphics/SVG/1.1/DTD/svg11.dtd">
<svg version="1.1" id="Layer_1" xmlns="http://www.w3.org/2000/svg" xmlns:xlink="http://www.w3.org/1999/xlink" x="0px" y="0px"
	 viewBox="28.3 40.1 558.8 558.8" enable-background="new 28.3 40.1 558.8 558.8" xml:space="preserve">
<g>
	<path fill="#666666" d="M306.3,389.1c27,0,51.5,11,69.3,28.8l28.7-28.7c-20.6-20.6-47.7-34.8-78-39.2l-41.6,41.6
		C291.7,390,298.9,389.1,306.3,389.1z"/>
	<path fill="#666666" d="M266.1,446.9l40.2,40.2l40.2-40.2c-10.3-10.3-24.5-16.7-40.2-16.7C290.6,430.3,276.4,436.6,266.1,446.9z"/>
	<path fill="#666666" d="M306.3,267.7c-60.5,0-115.3,24.6-155.1,64.3l28.7,28.7c23-23,52.2-39.7,84.9-47.5l45.4-45.4
		C308.9,267.8,307.6,267.7,306.3,267.7z"/>
	<path fill="#666666" d="M432.6,360.8l28.7-28.7c-19.9-19.9-43.7-36-70-47.2l-31.6,31.6C387.6,325.3,412.5,340.6,432.6,360.8z"/>
	<path fill="#666666" d="M306.3,186.8c-82.8,0-157.9,33.7-212.3,88.1l28.7,28.7c47-47,111.9-76.1,183.5-76.2c14,0,27.7,1.1,41.1,3.3
		l34.3-34.3C357.6,190.2,332.3,186.8,306.3,186.8z"/>
	<path fill="#666666" d="M421.7,254.6c25.3,12.6,48.3,29.2,68.1,49l28.7-28.7c-19.7-19.7-42.2-36.7-66.8-50.4L421.7,254.6z"/>
</g>
<path fill="#666666" d="M307.7,40.1c-154,0-279.4,125.3-279.4,279.4c0,154.1,125.3,279.4,279.4,279.4
	c154.1,0,279.4-125.3,279.4-279.4C587.1,165.5,461.7,40.1,307.7,40.1z M307.7,80.4c57.6,0,110.6,20.5,151.9,54.6L123.2,471.4
	c-34.1-41.3-54.6-94.3-54.6-151.9C68.6,187.7,175.9,80.4,307.7,80.4z M307.7,558.6c-57.6,0-110.6-20.5-151.9-54.6l336.4-336.4
	c34.1,41.3,54.6,94.3,54.6,151.9C546.8,451.3,439.5,558.6,307.7,558.6z"/>
</svg>
